<svg width="50" height="50" viewBox="0 0 50 50" fill="none" xmlns="http://www.w3.org/2000/svg">
<path d="M10.6387 5.42383C7.83516 5.42383 5.76133 7.87852 5.85391 10.5406C5.94297 13.0977 5.82734 16.4102 4.99336 19.1109C4.15742 21.8203 2.74336 23.5324 0.433594 23.7527V26.2477C2.74336 26.4676 4.15742 28.1801 4.99336 30.8895C5.82734 33.5902 5.94258 36.9027 5.85391 39.4598C5.76094 42.1219 7.83516 44.5762 10.6387 44.5762H39.3652C42.1688 44.5762 44.2426 42.1215 44.15 39.4598C44.0609 36.9027 44.1766 33.5902 45.0102 30.8895C45.8461 28.1805 47.2566 26.468 49.5664 26.2477V23.7527C47.2566 23.5328 45.8465 21.8203 45.0102 19.1109C44.1766 16.4102 44.0609 13.0977 44.15 10.5406C44.2426 7.87852 42.1688 5.42383 39.3648 5.42383H10.6387ZM33.3395 29.5199C33.3395 33.1855 30.6043 35.4078 26.0656 35.4078H17.6977C17.6468 35.4078 17.598 35.3876 17.562 35.3516C17.5261 35.3157 17.5059 35.2669 17.5059 35.216V14.7762C17.5058 14.751 17.5107 14.726 17.5203 14.7027C17.53 14.6793 17.5441 14.6582 17.5619 14.6403C17.5797 14.6224 17.6009 14.6083 17.6242 14.5986C17.6475 14.589 17.6724 14.584 17.6977 14.584H26.0215C29.8062 14.584 32.2898 16.6332 32.2898 19.7793C32.2898 21.9875 30.6191 23.9641 28.4902 24.3105V24.4262C31.3879 24.7437 33.3395 26.7496 33.3395 29.5199ZM25.223 17.225H20.8176V23.4445H24.5285C27.3965 23.4445 28.9781 22.2902 28.9781 20.2266C28.9781 18.293 27.6184 17.225 25.223 17.225V17.225ZM20.8176 25.9125V32.7672H25.3859C28.3723 32.7672 29.9543 31.5695 29.9543 29.318C29.9543 27.0668 28.3281 25.9125 25.1938 25.9125H20.8176Z" fill="#64FFDA"/>
</svg>
