<svg width="50" height="50" viewBox="0 0 50 50" fill="none" xmlns="http://www.w3.org/2000/svg">
<path d="M3.42188 0.390625L7.34961 44.4855L24.9738 49.3996L42.6473 44.4676L46.5781 0.390625H3.42188ZM38.4184 10.493L37.1109 25.1824L37.1148 25.2617L37.1094 25.4441V25.4426L36.1805 35.7137L36.0781 36.6262L25 39.6902V39.6906L24.9914 39.698L13.9324 36.6168L13.1836 28.125H18.6066L18.9914 32.443L25.0016 34.0719L25 34.075V34.0742L31.0324 32.4223L31.6699 25.3906H19.0594L18.9512 24.202L18.7047 21.4172L18.5754 19.9219H32.1492L32.643 14.4531H11.9688L11.8605 13.2652L11.6145 10.4797L11.4848 8.98438H38.5477L38.4184 10.493V10.493Z" fill="#64FFDA"/>
</svg>
