<svg width="50" height="50" viewBox="0 0 50 50" fill="none" xmlns="http://www.w3.org/2000/svg">
<path d="M49.4805 38.453C47.6992 38.9061 46.5977 38.4725 45.6094 36.9882C43.3906 33.664 40.9414 30.4921 38.5781 27.2616C38.2734 26.8436 37.957 26.4335 37.5625 25.9139C34.7656 29.6874 31.9727 33.2811 29.3516 37.0194C28.4141 38.3554 27.4297 38.9374 25.6797 38.4647L36.1953 24.3514L26.4062 11.6054C28.0898 11.2772 29.2539 11.4452 30.2852 12.953C32.5625 16.2811 35.0742 19.4491 37.5781 22.8007C40.0977 19.4608 42.5781 16.2889 44.9219 12.9921C45.8633 11.6561 46.875 11.1483 48.5664 11.6405C47.2852 13.3397 46.0312 15.0116 44.7695 16.6718C43.0664 18.91 41.3945 21.1757 39.6289 23.3671C39 24.1483 39.1016 24.6561 39.6641 25.3944C42.9297 29.6874 46.1562 34.0233 49.4805 38.453ZM0.519531 24.1171C0.800781 22.7069 0.988281 21.2694 1.37891 19.8866C3.72266 11.5155 13.332 8.03504 19.9336 13.2225C23.8008 16.2655 24.7617 20.5546 24.5703 25.3905H2.77344C2.44531 34.0663 8.69141 39.3046 16.6523 36.6327C19.4453 35.6952 21.0898 33.5077 21.9141 30.7733C22.332 29.4022 23.0234 29.1874 24.3125 29.578C23.6523 32.9999 22.1562 35.8593 19.0312 37.6483C14.3437 40.328 7.65234 39.4608 4.13281 35.7382C2.05469 33.5507 1.17187 30.828 0.78125 27.8866C0.722656 27.4179 0.601562 26.9569 0.507812 26.4921C0.515625 25.7004 0.519531 24.9087 0.519531 24.1171V24.1171ZM2.8125 23.535H22.5117C22.3828 17.2616 18.4766 12.8046 13.1367 12.7655C7.27734 12.7186 3.06641 17.0702 2.8125 23.535V23.535Z" fill="#64FFDA"/>
</svg>
