<svg width="50" height="50" viewBox="0 0 50 50" fill="none" xmlns="http://www.w3.org/2000/svg">
<path d="M0.550049 0.550049H49.4501V49.4504H0.550049V0.550049Z" fill="#64FFDA"/>
<path d="M45.4481 37.7874C45.0898 35.5565 43.6352 33.6827 39.3262 31.9355C37.8293 31.2476 36.1605 30.755 35.6633 29.6206C35.4867 28.9605 35.4633 28.5886 35.575 28.189C35.8957 26.8921 37.4438 26.4878 38.6707 26.8597C39.4609 27.1245 40.209 27.7335 40.6602 28.705C42.7703 27.3386 42.766 27.3476 44.2395 26.4085C43.7 25.5722 43.4121 25.1862 43.059 24.8284C41.7898 23.4108 40.0605 22.6808 37.2949 22.7366L35.8543 22.923C34.4738 23.2718 33.1582 23.9964 32.3867 24.9679C30.0719 27.5944 30.732 32.1913 33.5488 34.0831C36.3238 36.1659 40.4004 36.6397 40.9211 38.5874C41.4277 40.9718 39.1688 41.7437 36.9234 41.4694C35.2688 41.1253 34.3484 40.2843 33.3535 38.755C31.5223 39.8147 31.5223 39.8147 29.6395 40.8976C30.0859 41.8737 30.5551 42.3155 31.3035 43.1612C34.8457 46.7542 43.7098 46.5776 45.2996 41.1394C45.3641 40.9526 45.7922 39.7073 45.4481 37.7874V37.7874ZM27.1336 23.0245H22.5598L22.541 34.8495C22.541 37.3644 22.6711 39.6698 22.2621 40.3765C21.593 41.7663 19.859 41.594 19.0688 41.3245C18.2645 40.9292 17.8555 40.3671 17.3816 39.5726C17.2516 39.3444 17.1539 39.1679 17.1211 39.1542L13.4023 41.4315C14.0207 42.7007 14.9316 43.8023 16.0984 44.5179C17.8414 45.564 20.184 45.8847 22.634 45.3222C24.2285 44.8577 25.6043 43.8956 26.3246 42.4312C27.366 40.5112 27.1426 38.1874 27.1332 35.6171C27.1566 31.4237 27.1336 27.2312 27.1336 23.0245V23.0245Z" fill="#323330"/>
</svg>
