<svg width="50" height="50" viewBox="0 0 50 50" fill="none" xmlns="http://www.w3.org/2000/svg">
<g opacity="0.8">
<path d="M45.6828 38.2059C43.0019 38.1329 40.9547 38.3825 39.2043 39.1204C38.707 39.3301 37.9132 39.336 37.832 39.959C38.1054 40.2454 38.148 40.6735 38.3652 41.0258C38.7832 41.7016 39.4886 42.6086 40.1183 43.0836C40.8066 43.6032 41.5156 44.1583 42.2531 44.6079C43.5648 45.4075 45.0293 45.8645 46.2922 46.6657C47.0367 47.1383 47.7761 47.7332 48.5023 48.2661C48.8617 48.5297 49.1027 48.9395 49.5695 49.1047V49.029C49.3242 48.7165 49.2609 48.2875 49.0359 47.9614L48.0449 46.9704C47.0761 45.6844 45.8461 44.5547 44.5386 43.6168C43.4961 42.8684 41.1629 41.8575 40.7281 40.6446L40.6519 40.5684C41.391 40.4848 42.2562 40.2176 42.9386 40.0344C44.0847 39.7274 45.109 39.8067 46.2922 39.5012L47.8925 39.0438V38.7391C47.2945 38.1254 46.8679 37.3129 46.216 36.7575C44.509 35.3043 42.6464 33.8524 40.7285 32.6415C39.6644 31.9704 38.35 31.534 37.2222 30.9649C36.8429 30.7731 36.1765 30.6735 35.9261 30.3547C35.3336 29.6 35.0113 28.643 34.5547 27.7637C33.598 25.9211 32.6586 23.909 31.8109 21.9704C31.2328 20.6485 30.855 19.3454 30.1339 18.1594C26.673 12.4692 22.948 9.03521 17.1773 5.65942C15.9492 4.94146 14.4707 4.65825 12.9082 4.28716C12.0703 4.23677 11.2316 4.1856 10.3933 4.13442C9.88121 3.92114 9.34918 3.29497 8.86911 2.99107C6.95739 1.78325 2.05348 -0.8437 0.637856 2.61021C-0.256285 4.79028 1.97418 6.91685 2.77145 8.02192C3.33161 8.79614 4.0484 9.66528 4.4484 10.5368C4.71168 11.1098 4.757 11.6844 4.98239 12.2903C5.5359 13.7833 6.01832 15.4075 6.73512 16.7868C7.09723 17.4852 7.49645 18.2204 7.95465 18.8446C8.23512 19.2278 8.71676 19.3965 8.79254 19.9879C8.32223 20.6465 8.29528 21.6692 8.03082 22.5036C6.83942 26.2594 7.28903 30.9282 9.02184 33.7079C9.55309 34.5618 10.8058 36.3918 12.5277 35.6895C14.0339 35.0762 13.6976 33.1747 14.1285 31.4973C14.2257 31.1172 14.166 30.8375 14.357 30.5829V30.659L15.7293 33.4028C16.7449 35.0383 18.5464 36.7473 20.0738 37.9004C20.8656 38.4985 21.489 39.5321 22.5129 39.8821V39.8055H22.4367C22.2382 39.4965 21.9277 39.3684 21.6746 39.12C21.0781 38.5352 20.4148 37.8083 19.9218 37.1383C18.5328 35.2528 17.3054 33.1891 16.1871 31.0411C15.6527 30.0149 15.1882 28.8836 14.7382 27.8395C14.5648 27.4372 14.5672 26.8282 14.2054 26.62C13.7121 27.3848 12.9859 28.0036 12.6047 28.9067C11.9949 30.3504 11.9164 32.1114 11.6902 33.9372C11.5566 33.9848 11.616 33.952 11.5375 34.0129C10.4757 33.7571 10.1031 32.6645 9.70817 31.7266C8.71051 29.3555 8.52496 25.5383 9.40309 22.809C9.63043 22.1024 10.657 19.879 10.2414 19.2262C10.0429 18.5754 9.38825 18.1989 9.02223 17.7016C8.56871 17.0868 8.11637 16.2774 7.80192 15.5672C6.98551 13.7192 6.60426 11.6438 5.7445 9.77505C5.33317 8.88169 4.63825 7.97739 4.06754 7.18364C3.4359 6.30357 2.72809 5.65552 2.23825 4.59185C2.06403 4.21372 1.8277 3.60825 2.08551 3.21958C2.16754 2.95747 2.28395 2.8481 2.54293 2.76255C2.98512 2.42153 4.21637 2.87583 4.67653 3.06685C5.89879 3.57466 6.91911 4.05825 7.95465 4.74419C8.45114 5.07388 8.95426 5.71099 9.55504 5.88755H10.241C11.314 6.13403 12.516 5.96372 13.5187 6.26841C15.2906 6.80669 16.8785 7.64458 18.3203 8.55513C22.7132 11.3293 26.3054 15.2778 28.7625 19.9883C29.1578 20.7469 29.3289 21.4704 29.6769 22.275C30.3793 23.8973 31.264 25.5665 31.9629 27.1532C32.6605 28.736 33.3402 30.3333 34.3261 31.6504C34.8445 32.3426 36.8461 32.7141 37.7562 33.0989C38.3937 33.368 39.4386 33.6493 40.0429 34.0129C41.1964 34.709 42.3144 35.5375 43.3968 36.3C43.9371 36.6809 45.6 37.5172 45.6828 38.2059V38.2059ZM11.6129 9.16646C11.0539 9.15591 10.6586 9.22739 10.2406 9.31841V9.39458H10.3168C10.5836 9.94224 11.0543 10.2954 11.3836 10.7668C11.6375 11.3008 11.8918 11.834 12.1461 12.3672L12.2218 12.2918C12.6941 11.9586 12.9101 11.427 12.9074 10.6145C12.7183 10.4157 12.6906 10.1665 12.5265 9.92896C12.3093 9.61216 11.8879 9.43208 11.6129 9.16646Z" fill="#64FFDA"/>
</g>
</svg>
