<svg width="50" height="50" viewBox="0 0 50 50" fill="none" xmlns="http://www.w3.org/2000/svg">
<path d="M44.0512 11.8493L26.8258 1.84736C25.7395 1.22861 24.325 1.22861 23.2301 1.84736L5.8207 11.8493C4.69961 12.4942 3.90625 13.7063 3.90625 15.0028V34.9802C3.90625 36.2767 4.72031 37.4892 5.84141 38.1376L10.441 40.7501C12.6395 41.8329 13.4164 41.8329 14.4168 41.8329C17.6719 41.8329 19.5312 39.8646 19.5312 36.4314V16.7087C19.5312 16.4302 19.3863 16.0157 19.1129 16.0157H16.9164C16.6383 16.0157 16.0156 16.4302 16.0156 16.7083V36.431C16.0156 37.9528 14.6391 39.4673 12.0664 38.181L7.31367 35.4415C7.14805 35.3517 7.03125 35.1708 7.03125 34.9802V15.0028C7.03125 14.8146 7.24805 14.6255 7.41484 14.529L24.768 4.54424C24.9301 4.45244 25.1684 4.45244 25.3301 4.54424L42.4715 14.5267C42.6355 14.6255 42.5777 14.8087 42.5777 15.0028V34.9802C42.5777 35.1708 42.6492 35.3564 42.4871 35.4481L25.266 45.4388C25.1184 45.5274 24.9352 45.5274 24.7734 45.4388L20.3566 42.8024C20.2234 42.7251 20.0652 42.6974 19.9375 42.7689C18.7086 43.4653 18.482 43.5579 17.3293 43.9575C17.0457 44.0564 16.6273 44.2278 17.4895 44.711L23.2699 48.1306C23.8218 48.4493 24.4478 48.6172 25.0852 48.6173C25.7266 48.6173 26.3547 48.4509 26.9082 48.1306L44.0508 38.1376C45.1719 37.4845 45.7031 36.2767 45.7031 34.9802V15.0028C45.7031 13.7063 45.1719 12.4974 44.0512 11.8493V11.8493ZM30.4336 31.8146C25.8531 31.8146 24.8441 30.5509 24.5078 28.2731C24.4688 28.0278 24.2605 27.7345 24.0109 27.7345H21.7723C21.4953 27.7345 21.2727 28.0704 21.2727 28.3462C21.2727 31.2626 22.8582 34.7962 30.434 34.7962C35.918 34.7962 39.0621 32.6653 39.0621 28.8942C39.0621 25.1552 36.5359 24.1739 31.2176 23.47C25.8418 22.7595 25.2957 22.4005 25.2957 21.1411C25.2957 20.1028 25.7582 18.7181 29.7387 18.7181C33.2953 18.7181 34.6062 19.4813 35.1457 21.8786C35.1918 22.104 35.3977 22.2657 35.6301 22.2657H37.8777C38.016 22.2657 38.148 22.2099 38.2449 22.111C38.3387 22.0048 38.3883 21.8716 38.3758 21.7286C38.0277 17.6005 35.2852 15.6767 29.7383 15.6767C24.8043 15.6767 21.8609 17.7603 21.8609 21.2528C21.8609 25.0411 24.7895 26.088 29.5258 26.5563C35.1918 27.1118 35.6324 27.9399 35.6324 29.0544C35.6324 30.9899 34.0785 31.8146 30.4336 31.8146Z" fill="#64FFDA"/>
</svg>
