<svg width="150" height="150" viewBox="0 0 150 150" fill="none" xmlns="http://www.w3.org/2000/svg">
<path d="M129.003 25C132.367 25 134.22 28.915 132.093 31.526L128.381 36.083L122.537 43.4743C121.78 44.4312 120.629 44.9891 119.41 44.9891H81.5631C79.3601 44.9891 77.5741 43.1992 77.5741 40.9913V28.9978C77.5741 26.7899 79.3601 25 81.5631 25H129.003Z" fill="#64FFDA"/>
<path d="M129.003 104.956C132.367 104.956 134.22 108.871 132.093 111.482L128.381 116.039L122.537 123.431C121.78 124.387 120.629 124.945 119.41 124.945H81.5631C79.3601 124.945 77.5741 123.155 77.5741 120.948V108.954C77.5741 106.746 79.3601 104.956 81.5631 104.956H129.003Z" fill="#64FFDA"/>
<path d="M129.003 64.9781C132.367 64.9781 134.22 68.8931 132.093 71.5042L128.381 76.0612L122.537 83.4525C121.78 84.4093 120.629 84.9672 119.41 84.9672H81.5631C79.3601 84.9672 77.5741 83.1773 77.5741 80.9694V68.9759C77.5741 66.768 79.3601 64.9781 81.5631 64.9781H129.003Z" fill="#64FFDA"/>
<path d="M29.6903 25C28.491 25 27.3554 25.5408 26.5978 26.4725L18.7842 36.0831L16.8679 38.5111C14.7992 41.1322 16.6619 44.9891 19.9965 44.9891H67.6015C69.8046 44.9891 71.5906 43.1992 71.5906 40.9913V28.9978C71.5906 26.7899 69.8046 25 67.6015 25L29.6903 25Z" fill="#64FFDA"/>
<path d="M51.6455 103.646C51.6455 104.456 51.8908 105.247 52.349 105.914L62.7041 120.985L64.3479 123.308C66.597 126.485 71.5906 124.891 71.5906 120.995V38.9924C71.5906 36.7844 69.8046 34.9946 67.6015 34.9946H55.6345C53.4314 34.9946 51.6454 36.7844 51.6454 38.9924L51.6455 103.646Z" fill="#64FFDA"/>
<rect x="2.5" y="2.5" width="145" height="145" rx="12.5" stroke="#64FFDA" stroke-width="5"/>
</svg>
