<svg width="50" height="50" viewBox="0 0 50 50" fill="none" xmlns="http://www.w3.org/2000/svg">
<path d="M1.42812 17.595C1.42812 17.595 0.245698 16.7391 1.6664 15.5977L4.97421 12.6313C4.97421 12.6313 5.92187 11.6317 6.92304 12.5032L37.4602 35.6782V46.7915C37.4602 46.7915 37.4449 48.5368 35.2113 48.3446L1.42812 17.595Z" fill="#64FFDA"/>
<path d="M9.30037 24.7573L1.4281 31.9304C1.4281 31.9304 0.619507 32.5331 1.4281 33.612L5.08279 36.9429C5.08279 36.9429 5.95076 37.8784 7.23435 36.8147L15.5777 30.4718L9.30037 24.7573Z" fill="#64FFDA"/>
<path d="M23.1188 24.8169L37.5535 13.7681L37.4602 2.71456C37.4602 2.71456 36.8438 0.302065 34.7871 1.55871L15.5778 19.0825L23.1188 24.8169Z" fill="#64FFDA"/>
<path d="M35.2109 48.3581C36.0488 49.2186 37.0652 48.9362 37.0652 48.9362L48.3141 43.3807C49.7543 42.3964 49.5527 41.1757 49.5527 41.1757V7.99402C49.5527 6.53504 48.0637 6.03152 48.0637 6.03152L38.3133 1.3202C36.1832 0.000274271 34.7871 1.55848 34.7871 1.55848C34.7871 1.55848 36.5813 0.262774 37.4602 2.71473V46.5886C37.4602 46.8905 37.3961 47.1862 37.268 47.4534C37.0117 47.9737 36.4531 48.4573 35.118 48.2546L35.2109 48.3581Z" fill="#64FFDA"/>
</svg>
